<?xml version="1.0" encoding="UTF-8"?>
<svg width="32" height="32" viewBox="0 0 32 32" fill="none" xmlns="http://www.w3.org/2000/svg">
  <defs>
    <linearGradient id="gradient" x1="0%" y1="0%" x2="100%" y2="100%">
      <stop offset="0%" style="stop-color:#7dd3fc" />
      <stop offset="100%" style="stop-color:#0ea5e9" />
    </linearGradient>
  </defs>
  <path d="M16 2C8.268 2 2 8.268 2 16s6.268 14 14 14 14-6.268 14-14S23.732 2 16 2zm0 25.2c-6.188 0-11.2-5.012-11.2-11.2S9.812 4.8 16 4.8 27.2 9.812 27.2 16 22.188 27.2 16 27.2z" fill="url(#gradient)"/>
  <path d="M16 8c-1.1 0-2 .9-2 2v12c0 1.1.9 2 2 2s2-.9 2-2V10c0-1.1-.9-2-2-2z" fill="url(#gradient)"/>
  <circle cx="16" cy="16" r="4" fill="url(#gradient)"/>
</svg> 