<svg xmlns="http://www.w3.org/2000/svg" width="100" height="60" viewBox="0 0 512 512">
  <rect width="512" height="512" rx="50" fill="#016fd0"/>
  <g transform="translate(80, 180)" fill="#ffffff">
    <polygon points="0,0 36,0 42,9 48,0 120,0 126,12 132,0 174,0 186,30 198,0 246,0 246,17.5 252,0 300,0 336,63 312,117 282,117 276,105 270,117 0,117 0,96 6,84 0,72 0,51 6,39 0,27z"/>
    <path d="M12,27h54l6,12 6-12h48v12l6-12h18l24,51h-18l-6-12h-18l-6,12h-42v-33l-6,33h-12l-6-33-6,33h-12l-6-12h-18l-6,12h-18zM54,63l8-16 8,16zM156,63l8-16 8,16z"/>
    <path d="M216,33h54l6,12 6-12 54,0 18,21 18-21h48l-30,42-30,42h-18l-6-12h-18l-6,12h-42v-33l-6,33h-12l-6-33-6,33h-12l-6-12h-18l-6,12h-18zM258,63l8-16 8,16zM342,27l16,18-16,18z"/>
  </g>
</svg> 