<svg width="64" height="64" viewBox="0 0 64 64" fill="none" xmlns="http://www.w3.org/2000/svg">
  <rect width="64" height="64" rx="16" fill="url(#paint0_linear)" />
  <path d="M20 20H44V44H20V20Z" fill="url(#paint1_linear)" fill-opacity="0.2" />
  <path d="M32 16L48 32L32 48L16 32L32 16Z" fill="url(#paint2_linear)" fill-opacity="0.3" />
  <path d="M32 20C25.373 20 20 25.373 20 32C20 38.627 25.373 44 32 44C38.627 44 44 38.627 44 32C44 25.373 38.627 20 32 20ZM32 40C27.582 40 24 36.418 24 32C24 27.582 27.582 24 32 24C36.418 24 40 27.582 40 32C40 36.418 36.418 40 32 40Z" fill="white" />
  <path d="M32 28C29.791 28 28 29.791 28 32C28 34.209 29.791 36 32 36C34.209 36 36 34.209 36 32C36 29.791 34.209 28 32 28Z" fill="url(#paint3_linear)" />
  <defs>
    <linearGradient id="paint0_linear" x1="0" y1="0" x2="64" y2="64" gradientUnits="userSpaceOnUse">
      <stop stop-color="#3B82F6" />
      <stop offset="1" stop-color="#2563EB" />
    </linearGradient>
    <linearGradient id="paint1_linear" x1="20" y1="20" x2="44" y2="44" gradientUnits="userSpaceOnUse">
      <stop stop-color="white" />
      <stop offset="1" stop-color="white" stop-opacity="0" />
    </linearGradient>
    <linearGradient id="paint2_linear" x1="16" y1="16" x2="48" y2="48" gradientUnits="userSpaceOnUse">
      <stop stop-color="white" />
      <stop offset="1" stop-color="white" stop-opacity="0" />
    </linearGradient>
    <linearGradient id="paint3_linear" x1="28" y1="28" x2="36" y2="36" gradientUnits="userSpaceOnUse">
      <stop stop-color="#93C5FD" />
      <stop offset="1" stop-color="#60A5FA" />
    </linearGradient>
  </defs>
</svg> 