<svg width="120" height="40" viewBox="0 0 120 40" fill="none" xmlns="http://www.w3.org/2000/svg">
  <path d="M12 8H28V32H12V8Z" fill="url(#paint0_linear)" fill-opacity="0.2" />
  <path d="M20 4L36 20L20 36L4 20L20 4Z" fill="url(#paint1_linear)" fill-opacity="0.3" />
  <path d="M20 8C13.373 8 8 13.373 8 20C8 26.627 13.373 32 20 32C26.627 32 32 26.627 32 20C32 13.373 26.627 8 20 8ZM20 28C15.582 28 12 24.418 12 20C12 15.582 15.582 12 20 12C24.418 12 28 15.582 28 20C28 24.418 24.418 28 20 28Z" fill="url(#paint2_linear)" />
  <path d="M20 16C17.791 16 16 17.791 16 20C16 22.209 17.791 24 20 24C22.209 24 24 22.209 24 20C24 17.791 22.209 16 20 16Z" fill="url(#paint3_linear)" />
  
  <!-- Text -->
  <path d="M48 12H52V28H48V12Z" fill="url(#paint4_linear)" />
  <path d="M56 12H60V16H64V20H60V28H56V12Z" fill="url(#paint5_linear)" />
  <path d="M68 12H72V16H76V20H72V24H76V28H68V12Z" fill="url(#paint6_linear)" />
  <path d="M80 12H92V16H84V18H92V28H80V24H88V22H80V12Z" fill="url(#paint7_linear)" />
  <path d="M96 12H100V28H96V12Z" fill="url(#paint8_linear)" />
  
  <defs>
    <linearGradient id="paint0_linear" x1="12" y1="8" x2="28" y2="32" gradientUnits="userSpaceOnUse">
      <stop stop-color="white" />
      <stop offset="1" stop-color="white" stop-opacity="0" />
    </linearGradient>
    <linearGradient id="paint1_linear" x1="4" y1="4" x2="36" y2="36" gradientUnits="userSpaceOnUse">
      <stop stop-color="white" />
      <stop offset="1" stop-color="white" stop-opacity="0" />
    </linearGradient>
    <linearGradient id="paint2_linear" x1="8" y1="8" x2="32" y2="32" gradientUnits="userSpaceOnUse">
      <stop stop-color="#3B82F6" />
      <stop offset="1" stop-color="#2563EB" />
    </linearGradient>
    <linearGradient id="paint3_linear" x1="16" y1="16" x2="24" y2="24" gradientUnits="userSpaceOnUse">
      <stop stop-color="#93C5FD" />
      <stop offset="1" stop-color="#60A5FA" />
    </linearGradient>
    <linearGradient id="paint4_linear" x1="48" y1="12" x2="52" y2="28" gradientUnits="userSpaceOnUse">
      <stop stop-color="#3B82F6" />
      <stop offset="1" stop-color="#2563EB" />
    </linearGradient>
    <linearGradient id="paint5_linear" x1="56" y1="12" x2="64" y2="28" gradientUnits="userSpaceOnUse">
      <stop stop-color="#3B82F6" />
      <stop offset="1" stop-color="#2563EB" />
    </linearGradient>
    <linearGradient id="paint6_linear" x1="68" y1="12" x2="76" y2="28" gradientUnits="userSpaceOnUse">
      <stop stop-color="#3B82F6" />
      <stop offset="1" stop-color="#2563EB" />
    </linearGradient>
    <linearGradient id="paint7_linear" x1="80" y1="12" x2="92" y2="28" gradientUnits="userSpaceOnUse">
      <stop stop-color="#3B82F6" />
      <stop offset="1" stop-color="#2563EB" />
    </linearGradient>
    <linearGradient id="paint8_linear" x1="96" y1="12" x2="100" y2="28" gradientUnits="userSpaceOnUse">
      <stop stop-color="#3B82F6" />
      <stop offset="1" stop-color="#2563EB" />
    </linearGradient>
  </defs>
</svg> 