<svg xmlns="http://www.w3.org/2000/svg" width="100" height="60" viewBox="0 0 1000 600">
  <rect width="1000" height="600" fill="#ffffff"/>
  <path d="M651.19,293.51c0-48.487,22.933-91.56,58.633-119.24-26.125-20.655-59.164-33.012-95.119-33.012-84.764,0-153.93,68.673-153.93,153.44,0,84.769,69.166,153.44,153.93,153.44,35.955,0,68.994-12.357,95.119-33.01-35.7-27.682-58.633-70.755-58.633-119.242v-2.376Z" fill="#F7B600"/>
  <path d="M651.19,295.884c0,48.487,22.933,91.56,58.633,119.242,35.701-27.682,58.635-70.755,58.635-119.242v-2.375c0-48.487-22.934-91.56-58.635-119.24-35.7,27.681-58.633,70.754-58.633,119.24v2.375Z" fill="#E50914"/>
  <path d="M818.602,293.69c0,84.769-68.923,153.441-153.682,153.441-35.699,0-68.738-12.358-94.862-33.01,52.125-40.602,85.618-104.2,85.618-175.618v-3.566c0-71.418-33.493-135.017-85.618-175.618,26.124-20.649,59.163-33.007,94.862-33.007,84.759,0,153.682,68.674,153.682,153.442,0,84.767-0.001,71.171-0.001,113.935Z" fill="#00579F"/>
  <path fill="#ffffff" d="M 230.903 345.914 L 255.559 254.591 L 289.681 254.591 L 265.025 345.914 L 230.903 345.914 Z"/>
  <path fill="#ffffff" d="M 367.404 258.054 C 360.147 255.217 351.878 253.432 341.849 253.432 C 301.337 253.432 274.923 273.844 274.923 303.022 C 274.923 325.693 294.369 340.105 321.338 340.105 C 339.729 340.105 349.968 332.888 349.968 332.888 L 353.855 345.915 L 384.159 345.915 L 402.661 254.592 L 372.468 254.592 L 367.404 258.054 Z M 380.428 292.05 C 380.428 317.204 349.579 316.822 349.579 301.138 C 349.579 291.998 357.86 286.242 372.145 286.242 C 376.54 286.242 382.372 287.08 387.406 288.177 L 380.428 292.05 Z"/>
  <path fill="#ffffff" d="M 444.661 345.916 L 439.43 372.342 L 408.952 372.342 L 442.509 227.658 L 480.146 227.658 C 505.183 227.658 517.8 246.173 512.435 266.963 C 505.474 293.913 486.157 311.002 459.837 311.002 L 439.043 311.002 L 444.661 345.916 Z M 456.053 285.456 L 463.336 285.456 C 475.18 285.456 483.07 278.766 485.515 267.86 C 487.571 258.84 481.546 252.88 470.876 252.88 L 463.594 252.88 L 456.053 285.456 Z"/>
  <path fill="#ffffff" d="M 498.447 345.914 L 531.493 227.658 L 562.095 227.658 L 529.049 345.914 L 498.447 345.914 Z"/>
  <path fill="#ffffff" d="M 598.672 227.658 L 635.343 227.658 L 623.037 288.685 L 658.772 254.59 L 701.874 254.59 L 654.11 296.958 L 677.799 345.914 L 637.016 345.914 L 620.205 308.537 L 611.889 316.341 L 603.838 345.914 L 565.627 345.914 L 598.672 227.658 Z"/>
</svg> 